<svg width="34" height="34" viewBox="0 0 34 34" fill="none" xmlns="http://www.w3.org/2000/svg">
<path d="M29.75 14.1667C29.75 24.0833 17 32.5833 17 32.5833C17 32.5833 4.25 24.0833 4.25 14.1667C4.25 10.7851 5.5933 7.54213 7.98439 5.15104C10.3755 2.75996 13.6185 1.41666 17 1.41666C20.3815 1.41666 23.6245 2.75996 26.0156 5.15104C28.4067 7.54213 29.75 10.7851 29.75 14.1667Z" stroke="black" stroke-width="2" stroke-linecap="round" stroke-linejoin="round"/>
<path d="M17 18.4167C19.3472 18.4167 21.25 16.5139 21.25 14.1667C21.25 11.8194 19.3472 9.91666 17 9.91666C14.6528 9.91666 12.75 11.8194 12.75 14.1667C12.75 16.5139 14.6528 18.4167 17 18.4167Z" stroke="black" stroke-width="2" stroke-linecap="round" stroke-linejoin="round"/>
</svg>
