<svg width="221" height="222" viewBox="0 0 221 222" fill="none" xmlns="http://www.w3.org/2000/svg">
<g clip-path="url(#clip0)">
<path d="M199.747 187.016L201.694 179.327C205.145 177.863 208.675 176.594 212.269 175.527L212.515 179.1L213.511 175.164C217.968 173.888 221 173.327 221 173.327C221 173.327 216.905 188.924 208.315 200.849L198.306 202.61L206.081 203.732C205.001 205.035 203.839 206.268 202.604 207.424C190.109 219.04 176.19 224.37 171.518 219.328C166.845 214.286 173.187 200.782 185.682 189.166C189.556 185.565 194.422 182.675 199.294 180.4L199.747 187.016Z" fill="#F2F2F2"/>
<path d="M181.237 178.665L178.935 171.076C181.133 168.035 183.501 165.121 186.027 162.348L188.081 165.279L186.902 161.394C190.06 157.995 192.365 155.945 192.365 155.945C192.365 155.945 196.909 171.417 195.711 186.072L188.051 192.761L195.289 189.697C195.035 191.372 194.677 193.028 194.216 194.658C189.515 211.071 180.351 222.839 173.749 220.942C167.146 219.045 165.605 204.201 170.307 187.788C171.764 182.7 174.439 177.707 177.435 173.238L181.237 178.665Z" fill="#F2F2F2"/>
<path d="M66.7873 52.5919H68.0015V19.2805C68.0015 16.7486 68.4994 14.2414 69.4669 11.9022C70.4343 9.56296 71.8523 7.43749 73.64 5.64713C75.4276 3.85677 77.5498 2.43658 79.8855 1.46764C82.2211 0.498704 84.7245 0 87.2526 0H157.722C162.828 0 167.724 2.03133 171.335 5.64713C174.945 9.26293 176.973 14.167 176.973 19.2805V202.033C176.973 204.565 176.475 207.072 175.508 209.411C174.54 211.75 173.122 213.876 171.335 215.666C169.547 217.456 167.425 218.877 165.089 219.846C162.753 220.815 160.25 221.313 157.722 221.313H87.2526C82.1469 221.313 77.2504 219.282 73.6402 215.666C70.0299 212.05 68.0018 207.146 68.0018 202.033V76.3037H66.7876L66.7873 52.5919Z" fill="#E6E6E6"/>
<path d="M86.4759 5.01416H95.6738C95.2507 6.0529 95.0893 7.1799 95.2036 8.29587C95.3179 9.41184 95.7046 10.4825 96.3294 11.4136C96.9542 12.3446 97.7981 13.1075 98.7867 13.635C99.7753 14.1624 100.878 14.4383 101.998 14.4382H142.369C143.49 14.4382 144.592 14.1622 145.581 13.6347C146.569 13.1073 147.413 12.3444 148.038 11.4133C148.663 10.4823 149.049 9.41164 149.164 8.29572C149.278 7.1798 149.116 6.05286 148.693 5.01416H157.285C161.098 5.01416 164.754 6.53114 167.451 9.23138C170.147 11.9316 171.661 15.5939 171.661 19.4127V201.899C171.661 205.718 170.147 209.381 167.451 212.081C164.754 214.781 161.098 216.298 157.285 216.298H86.4759C82.663 216.298 79.0063 214.781 76.3102 212.081C73.614 209.381 72.0994 205.718 72.0994 201.899V19.4124C72.0995 15.5937 73.6142 11.9315 76.3103 9.23128C79.0064 6.5311 82.6631 5.01416 86.4759 5.01416Z" fill="white"/>
<path d="M130.903 77.7074C130.904 76.4318 130.568 75.1787 129.931 74.0741C129.294 72.9695 128.378 72.0525 127.275 71.4153C128.377 70.7774 129.628 70.4415 130.902 70.4414C132.175 70.4413 133.427 70.7769 134.53 71.4145C135.632 72.0522 136.548 72.9694 137.185 74.0739C137.822 75.1785 138.157 76.4315 138.157 77.7069C138.157 78.9824 137.822 80.2354 137.185 81.3399C136.548 82.4445 135.632 83.3617 134.53 83.9993C133.427 84.637 132.175 84.9726 130.902 84.9724C129.628 84.9723 128.377 84.6364 127.275 83.9985C128.378 83.3615 129.294 82.4446 129.931 81.3402C130.568 80.2358 130.904 78.9828 130.903 77.7074Z" fill="#CCCCCC"/>
<path d="M121.783 77.7074C121.783 76.4318 121.448 75.1786 120.811 74.0741C120.174 72.9695 119.258 72.0525 118.155 71.4153C119.257 70.7774 120.508 70.4415 121.782 70.4414C123.055 70.4413 124.306 70.7769 125.409 71.4145C126.512 72.0522 127.428 72.9694 128.065 74.0739C128.702 75.1785 129.037 76.4315 129.037 77.7069C129.037 78.9824 128.702 80.2354 128.065 81.3399C127.428 82.4445 126.512 83.3617 125.409 83.9993C124.306 84.637 123.055 84.9726 121.782 84.9724C120.508 84.9723 119.257 84.6364 118.155 83.9985C119.258 83.3615 120.174 82.4446 120.811 81.3402C121.448 80.2358 121.783 78.9828 121.783 77.7074Z" fill="#CCCCCC"/>
<path d="M112.871 84.9729C108.864 84.9729 105.616 81.72 105.616 77.7074C105.616 73.6948 108.864 70.4419 112.871 70.4419C116.877 70.4419 120.125 73.6948 120.125 77.7074C120.125 81.72 116.877 84.9729 112.871 84.9729Z" fill="#055555"/>
<path d="M100.747 100.401H143.027C143.43 100.4 143.816 100.24 144.1 99.9549C144.385 99.6699 144.545 99.2834 144.545 98.8802V56.5352C144.545 56.1321 144.385 55.7456 144.1 55.4605C143.816 55.1755 143.43 55.0151 143.027 55.0146H100.747C100.344 55.0151 99.9583 55.1755 99.6737 55.4605C99.3891 55.7456 99.229 56.1321 99.2285 56.5352V98.8802C99.229 99.2834 99.3891 99.6699 99.6737 99.9549C99.9583 100.24 100.344 100.4 100.747 100.401ZM143.027 55.6232C143.269 55.6235 143.5 55.7197 143.671 55.8907C143.842 56.0617 143.938 56.2936 143.938 56.5355V98.8805C143.938 99.1224 143.842 99.3543 143.671 99.5254C143.5 99.6964 143.269 99.7926 143.027 99.7928H100.747C100.505 99.7926 100.274 99.6964 100.103 99.5254C99.9321 99.3543 99.8361 99.1224 99.8358 98.8805V56.5355C99.8361 56.2936 99.9321 56.0617 100.103 55.8907C100.274 55.7197 100.505 55.6235 100.747 55.6232H143.027Z" fill="#CCCCCC"/>
<path d="M91.3062 132.86H156.152V133.468H91.3062V132.86Z" fill="#CCCCCC"/>
<path d="M154.104 129.062C152.973 129.062 152.056 128.144 152.056 127.011C152.056 125.879 152.973 124.96 154.104 124.96C155.235 124.96 156.152 125.879 156.152 127.011C156.152 128.144 155.235 129.062 154.104 129.062Z" fill="#055555"/>
<path d="M91.3062 153.369H156.152V153.977H91.3062V153.369Z" fill="#CCCCCC"/>
<path d="M154.104 149.571C152.973 149.571 152.056 148.653 152.056 147.52C152.056 146.387 152.973 145.469 154.104 145.469C155.235 145.469 156.152 146.387 156.152 147.52C156.152 148.653 155.235 149.571 154.104 149.571Z" fill="#055555"/>
<path d="M92.493 176.723H112.986C113.34 176.723 113.679 176.582 113.93 176.331C114.18 176.08 114.321 175.74 114.321 175.386V168.192C114.321 167.838 114.18 167.498 113.93 167.247C113.679 166.996 113.34 166.855 112.986 166.855H92.493C92.139 166.855 91.7996 166.996 91.5493 167.247C91.299 167.498 91.1582 167.838 91.1578 168.192V175.386C91.1582 175.74 91.299 176.08 91.5493 176.331C91.7996 176.582 92.139 176.723 92.493 176.723Z" fill="#055555"/>
<path d="M147.424 129.062C146.293 129.062 145.376 128.144 145.376 127.011C145.376 125.879 146.293 124.96 147.424 124.96C148.555 124.96 149.471 125.879 149.471 127.011C149.471 128.144 148.555 129.062 147.424 129.062Z" fill="#055555"/>
<path d="M140.744 129.062C139.613 129.062 138.696 128.144 138.696 127.011C138.696 125.879 139.613 124.96 140.744 124.96C141.875 124.96 142.792 125.879 142.792 127.011C142.792 128.144 141.875 129.062 140.744 129.062Z" fill="#055555"/>
<path d="M147.424 149.571C146.293 149.571 145.376 148.653 145.376 147.52C145.376 146.387 146.293 145.469 147.424 145.469C148.555 145.469 149.471 146.387 149.471 147.52C149.471 148.653 148.555 149.571 147.424 149.571Z" fill="#055555"/>
<path d="M140.744 149.571C139.613 149.571 138.696 148.653 138.696 147.52C138.696 146.387 139.613 145.469 140.744 145.469C141.875 145.469 142.792 146.387 142.792 147.52C142.792 148.653 141.875 149.571 140.744 149.571Z" fill="#055555"/>
<path d="M0.825302 222H213.855C214.311 222 214.681 221.838 214.681 221.638C214.681 221.438 214.311 221.276 213.855 221.276H0.825302C0.369553 221.276 -0.00012207 221.438 -0.00012207 221.638C-0.00012207 221.838 0.369553 222 0.825302 222Z" fill="#3F3D56"/>
<path d="M53.4578 145.447C53.3123 145.514 53.1723 145.592 53.0393 145.681L39.7314 139.993L39.2564 136.482L33.939 136.449L34.2531 144.502L51.818 149.154C51.8549 149.276 51.8993 149.396 51.9507 149.513C52.2047 150.056 52.6131 150.511 53.1247 150.822C53.6362 151.133 54.2281 151.286 54.826 151.261C55.424 151.236 56.0012 151.035 56.4854 150.683C56.9695 150.331 57.3389 149.843 57.5472 149.281C57.7555 148.719 57.7934 148.108 57.6561 147.525C57.5188 146.941 57.2124 146.412 56.7755 146.002C56.3386 145.592 55.7907 145.321 55.2004 145.223C54.6101 145.124 54.0039 145.202 53.4578 145.447Z" fill="#FFB8B8"/>
<path d="M32.0048 218.418H35.6424L37.3728 204.366L32.0042 204.366L32.0048 218.418Z" fill="#FFB8B8"/>
<path d="M38.2407 217.376H31.2254V221.8H42.6577C42.6577 220.627 42.1924 219.502 41.364 218.672C40.5357 217.843 39.4122 217.376 38.2407 217.376Z" fill="#2F2E41"/>
<path d="M17.8582 217.388L21.4783 217.745L24.5762 203.931L19.2334 203.404L17.8582 217.388Z" fill="#FFB8B8"/>
<path d="M24.1656 216.964L17.1841 216.276L16.7511 220.678L28.1283 221.8C28.1852 221.222 28.1278 220.639 27.9594 220.083C27.791 219.527 27.515 219.009 27.147 218.56C26.779 218.111 26.3263 217.739 25.8148 217.465C25.3032 217.192 24.7428 217.021 24.1656 216.964Z" fill="#2F2E41"/>
<path d="M30.9924 121.578C26.9677 121.578 23.705 118.31 23.705 114.279C23.705 110.249 26.9677 106.981 30.9924 106.981C35.0171 106.981 38.2798 110.249 38.2798 114.279C38.2798 118.31 35.0171 121.578 30.9924 121.578Z" fill="#FFB8B8"/>
<path d="M36.4554 215.575C36.768 215.576 37.0709 215.466 37.3106 215.265C37.5502 215.064 37.7113 214.785 37.7654 214.477C39.6482 204.009 45.8025 169.783 45.9497 168.835C45.9529 168.813 45.9545 168.791 45.9543 168.769V166.217C45.9546 166.124 45.9256 166.033 45.8715 165.958L45.0584 164.817C45.0198 164.762 44.9691 164.717 44.9103 164.685C44.8515 164.653 44.7861 164.634 44.7191 164.631C40.084 164.414 24.9039 163.776 24.1706 164.693C23.434 165.616 23.6942 168.41 23.7539 168.961L23.751 169.018L16.9311 212.699C16.8778 213.047 16.9635 213.403 17.1698 213.688C17.376 213.974 17.6863 214.167 18.0334 214.225L22.293 214.928C22.6102 214.979 22.9352 214.914 23.2089 214.745C23.4825 214.577 23.6866 214.315 23.784 214.009C25.1015 209.792 29.5191 195.609 31.0501 190.121C31.0597 190.086 31.0816 190.056 31.1117 190.036C31.1418 190.017 31.178 190.009 31.2137 190.014C31.2493 190.019 31.2819 190.037 31.3053 190.064C31.3288 190.091 31.3415 190.126 31.341 190.162C31.2645 195.394 31.0797 208.742 31.0159 213.352L31.009 213.848C31.0062 214.184 31.1293 214.509 31.3542 214.759C31.579 215.009 31.8892 215.165 32.2233 215.196L36.3308 215.57C36.3726 215.574 36.4143 215.575 36.4554 215.575Z" fill="#2F2E41"/>
<path d="M35.6174 124.448C36.8892 125.205 37.6502 126.596 38.0869 128.012C38.8954 130.633 39.382 133.343 39.5361 136.083L39.9976 144.284L45.7107 166.027C40.7591 170.223 37.9028 169.27 31.2373 165.837C24.5718 162.405 23.8101 166.982 23.8101 166.982L22.4772 148.481L20.5728 128.265C21.0003 127.749 21.4841 127.283 22.0153 126.876C23.7755 125.505 25.8235 124.552 28.0048 124.089C30.1861 123.626 32.4439 123.665 34.6081 124.203L35.6174 124.448Z" fill="#055555"/>
<path d="M37.4731 149.839C37.3194 149.896 37.1706 149.966 37.0279 150.048L23.8695 143.452L23.6511 139.878L18.2233 139.503L17.9324 147.649L35.5168 153.473C35.6604 154.09 35.9881 154.649 36.4563 155.074C36.9244 155.5 37.5109 155.773 38.1377 155.857C38.7646 155.94 39.402 155.831 39.9652 155.543C40.5285 155.255 40.9909 154.803 41.2909 154.245C41.591 153.688 41.7145 153.052 41.6449 152.422C41.5754 151.793 41.3162 151.199 40.9017 150.721C40.4873 150.243 39.9373 149.902 39.3248 149.744C38.7124 149.587 38.0665 149.62 37.4731 149.839Z" fill="#FFB8B8"/>
<path d="M20.668 128.357C17.4305 129.502 16.8602 141.9 16.8602 141.9C20.669 139.802 25.2396 143.235 25.2396 143.235C25.2396 143.235 26.1918 139.993 27.3345 135.797C27.6795 134.616 27.7208 133.368 27.4544 132.167C27.188 130.967 26.6227 129.853 25.8111 128.93C25.8111 128.93 23.9055 127.212 20.668 128.357Z" fill="#055555"/>
<path d="M24.4583 116.21C25.3662 115.482 26.605 116.804 26.605 116.804L27.3314 110.257C27.3314 110.257 31.8713 110.802 34.7768 110.075C37.6823 109.349 38.1363 112.712 38.1363 112.712C38.2861 111.354 38.3164 109.984 38.227 108.62C38.0456 106.984 35.6847 105.347 31.5081 104.255C27.3314 103.164 25.1524 107.893 25.1524 107.893C22.2466 109.348 23.5504 116.937 24.4583 116.21Z" fill="#2F2E41"/>
</g>
<defs>
<clipPath id="clip0">
<rect width="221" height="222" fill="white" transform="matrix(-1 0 0 1 221 0)"/>
</clipPath>
</defs>
</svg>
