<svg width="221" height="222" viewBox="0 0 221 222" fill="none" xmlns="http://www.w3.org/2000/svg">
<g clip-path="url(#clip0)">
<path d="M199.747 187.015L201.694 179.327C205.145 177.862 208.675 176.594 212.269 175.527L212.515 179.1L213.511 175.164C217.968 173.888 221 173.326 221 173.326C221 173.326 216.905 188.924 208.315 200.848L198.306 202.609L206.081 203.732C205.001 205.035 203.839 206.267 202.604 207.424C190.109 219.04 176.19 224.37 171.518 219.328C166.845 214.286 173.187 200.782 185.682 189.166C189.556 185.565 194.422 182.675 199.294 180.4L199.747 187.015Z" fill="#F2F2F2"/>
<path d="M181.237 178.665L178.935 171.076C181.133 168.035 183.501 165.122 186.027 162.348L188.081 165.28L186.902 161.394C190.06 157.996 192.365 155.946 192.365 155.946C192.365 155.946 196.909 171.418 195.711 186.073L188.051 192.762L195.289 189.697C195.035 191.372 194.677 193.029 194.216 194.658C189.515 211.071 180.351 222.839 173.749 220.942C167.146 219.045 165.605 204.202 170.307 187.788C171.764 182.7 174.439 177.707 177.435 173.238L181.237 178.665Z" fill="#F2F2F2"/>
<path d="M66.7873 52.5919H68.0015V19.2805C68.0015 16.7486 68.4994 14.2414 69.4669 11.9022C70.4343 9.56296 71.8523 7.43749 73.64 5.64713C75.4276 3.85677 77.5498 2.43658 79.8855 1.46764C82.2211 0.498704 84.7245 0 87.2526 0H157.722C162.828 0 167.724 2.03133 171.335 5.64713C174.945 9.26293 176.973 14.167 176.973 19.2805V202.033C176.973 204.565 176.475 207.072 175.508 209.411C174.54 211.75 173.122 213.876 171.335 215.666C169.547 217.456 167.425 218.877 165.089 219.846C162.753 220.815 160.25 221.313 157.722 221.313H87.2526C82.1469 221.313 77.2504 219.282 73.6402 215.666C70.0299 212.05 68.0018 207.146 68.0018 202.033V76.3037H66.7876L66.7873 52.5919Z" fill="#E6E6E6"/>
<path d="M86.4759 5.01425H95.6737C95.2507 6.05299 95.0892 7.18 95.2036 8.29596C95.3179 9.41193 95.7045 10.4826 96.3293 11.4137C96.9542 12.3447 97.7981 13.1076 98.7866 13.635C99.7752 14.1625 100.878 14.4384 101.998 14.4383H142.369C143.489 14.4383 144.592 14.1623 145.581 13.6348C146.569 13.1073 147.413 12.3445 148.038 11.4134C148.663 10.4824 149.049 9.41174 149.164 8.29582C149.278 7.1799 149.116 6.05295 148.693 5.01425H157.285C161.098 5.01425 164.754 6.53123 167.451 9.23147C170.147 11.9317 171.661 15.594 171.661 19.4127V201.9C171.661 205.718 170.147 209.381 167.451 212.081C164.754 214.781 161.098 216.298 157.285 216.298H86.4759C82.663 216.298 79.0062 214.781 76.3101 212.081C73.614 209.381 72.0993 205.718 72.0993 201.9V19.4124C72.0994 15.5938 73.6141 11.9315 76.3102 9.23137C79.0063 6.53119 82.663 5.01425 86.4759 5.01425Z" fill="white"/>
<path d="M130.903 77.7075C130.904 76.432 130.568 75.1789 129.931 74.0743C129.294 72.9697 128.378 72.0527 127.275 71.4155C128.377 70.7776 129.628 70.4417 130.902 70.4416C132.175 70.4414 133.427 70.7771 134.529 71.4147C135.632 72.0524 136.548 72.9696 137.185 74.0741C137.822 75.1787 138.157 76.4316 138.157 77.7071C138.157 78.9826 137.822 80.2355 137.185 81.3401C136.548 82.4446 135.632 83.3618 134.529 83.9995C133.427 84.6371 132.175 84.9728 130.902 84.9726C129.628 84.9725 128.377 84.6366 127.275 83.9987C128.378 83.3616 129.294 82.4448 129.931 81.3404C130.568 80.236 130.903 78.983 130.903 77.7075Z" fill="#CCCCCC"/>
<path d="M121.783 77.7075C121.784 76.432 121.448 75.1788 120.811 74.0743C120.174 72.9697 119.258 72.0527 118.155 71.4155C119.257 70.7776 120.508 70.4417 121.782 70.4416C123.055 70.4414 124.307 70.7771 125.41 71.4147C126.512 72.0524 127.428 72.9696 128.065 74.0741C128.702 75.1787 129.037 76.4316 129.037 77.7071C129.037 78.9826 128.702 80.2355 128.065 81.3401C127.428 82.4446 126.512 83.3618 125.41 83.9995C124.307 84.6371 123.055 84.9728 121.782 84.9726C120.508 84.9725 119.257 84.6366 118.155 83.9987C119.258 83.3616 120.174 82.4448 120.811 81.3404C121.448 80.236 121.783 78.983 121.783 77.7075Z" fill="#CCCCCC"/>
<path d="M112.871 84.9727C108.864 84.9727 105.616 81.7199 105.616 77.7072C105.616 73.6946 108.864 70.4417 112.871 70.4417C116.877 70.4417 120.125 73.6946 120.125 77.7072C120.125 81.7199 116.877 84.9727 112.871 84.9727Z" fill="#9F5AE5"/>
<path d="M100.747 100.401H143.027C143.43 100.4 143.815 100.24 144.1 99.9548C144.385 99.6697 144.545 99.2833 144.545 98.8801V56.5351C144.545 56.132 144.385 55.7455 144.1 55.4604C143.815 55.1754 143.43 55.015 143.027 55.0145H100.747C100.344 55.015 99.9582 55.1754 99.6736 55.4604C99.389 55.7455 99.2288 56.132 99.2284 56.5351V98.8801C99.2288 99.2833 99.389 99.6697 99.6736 99.9548C99.9582 100.24 100.344 100.4 100.747 100.401ZM143.027 55.6231C143.269 55.6233 143.5 55.7195 143.671 55.8906C143.842 56.0616 143.938 56.2935 143.938 56.5354V98.8804C143.938 99.1223 143.842 99.3542 143.671 99.5252C143.5 99.6963 143.269 99.7925 143.027 99.7927H100.747C100.505 99.7925 100.274 99.6963 100.103 99.5252C99.932 99.3542 99.836 99.1223 99.8357 98.8804V56.5354C99.836 56.2935 99.932 56.0616 100.103 55.8906C100.274 55.7195 100.505 55.6233 100.747 55.6231H143.027Z" fill="#CCCCCC"/>
<path d="M91.3062 132.86H156.152V133.468H91.3062V132.86Z" fill="#CCCCCC"/>
<path d="M154.104 129.062C152.973 129.062 152.056 128.144 152.056 127.011C152.056 125.879 152.973 124.96 154.104 124.96C155.235 124.96 156.152 125.879 156.152 127.011C156.152 128.144 155.235 129.062 154.104 129.062Z" fill="#9F5AE5"/>
<path d="M91.3062 153.369H156.152V153.977H91.3062V153.369Z" fill="#CCCCCC"/>
<path d="M154.104 149.571C152.973 149.571 152.056 148.653 152.056 147.52C152.056 146.387 152.973 145.469 154.104 145.469C155.235 145.469 156.152 146.387 156.152 147.52C156.152 148.653 155.235 149.571 154.104 149.571Z" fill="#9F5AE5"/>
<path d="M92.4929 176.723H112.986C113.34 176.723 113.679 176.582 113.929 176.331C114.18 176.08 114.321 175.74 114.321 175.386V168.192C114.321 167.838 114.18 167.498 113.929 167.247C113.679 166.996 113.34 166.855 112.986 166.855H92.4929C92.1389 166.855 91.7995 166.996 91.5492 167.247C91.2989 167.498 91.1581 167.838 91.1577 168.192V175.386C91.1581 175.74 91.2989 176.08 91.5492 176.331C91.7995 176.582 92.1389 176.723 92.4929 176.723Z" fill="#9F5AE5"/>
<path d="M147.424 129.062C146.293 129.062 145.376 128.144 145.376 127.011C145.376 125.879 146.293 124.96 147.424 124.96C148.555 124.96 149.471 125.879 149.471 127.011C149.471 128.144 148.555 129.062 147.424 129.062Z" fill="#9F5AE5"/>
<path d="M140.744 129.062C139.613 129.062 138.696 128.144 138.696 127.011C138.696 125.879 139.613 124.96 140.744 124.96C141.875 124.96 142.792 125.879 142.792 127.011C142.792 128.144 141.875 129.062 140.744 129.062Z" fill="#9F5AE5"/>
<path d="M147.424 149.571C146.293 149.571 145.376 148.653 145.376 147.52C145.376 146.387 146.293 145.469 147.424 145.469C148.555 145.469 149.471 146.387 149.471 147.52C149.471 148.653 148.555 149.571 147.424 149.571Z" fill="#9F5AE5"/>
<path d="M140.744 149.571C139.613 149.571 138.696 148.653 138.696 147.52C138.696 146.387 139.613 145.469 140.744 145.469C141.875 145.469 142.792 146.387 142.792 147.52C142.792 148.653 141.875 149.571 140.744 149.571Z" fill="#9F5AE5"/>
<path d="M0.825424 222H213.855C214.311 222 214.681 221.838 214.681 221.638C214.681 221.438 214.311 221.276 213.855 221.276H0.825424C0.369675 221.276 0 221.438 0 221.638C0 221.838 0.369675 222 0.825424 222Z" fill="#3F3D56"/>
<path d="M53.4577 145.447C53.3122 145.514 53.1722 145.592 53.0391 145.681L39.7313 139.993L39.2563 136.482L33.9389 136.449L34.253 144.502L51.8179 149.154C51.8548 149.276 51.8991 149.396 51.9506 149.513C52.2046 150.056 52.613 150.511 53.1245 150.822C53.6361 151.133 54.228 151.286 54.8259 151.261C55.4238 151.236 56.0011 151.035 56.4852 150.683C56.9694 150.331 57.3388 149.843 57.5471 149.281C57.7554 148.719 57.7932 148.108 57.6559 147.525C57.5187 146.941 57.2123 146.412 56.7754 146.002C56.3385 145.592 55.7905 145.321 55.2003 145.223C54.61 145.124 54.0038 145.202 53.4577 145.447Z" fill="#FFB8B8"/>
<path d="M32.0049 218.418H35.6425L37.3729 204.366L32.0043 204.366L32.0049 218.418Z" fill="#FFB8B8"/>
<path d="M38.2408 217.377H31.2256V221.8H42.6578C42.6578 220.627 42.1925 219.502 41.3641 218.672C40.5358 217.843 39.4123 217.377 38.2408 217.377Z" fill="#2F2E41"/>
<path d="M17.8581 217.388L21.4782 217.745L24.5761 203.931L19.2333 203.404L17.8581 217.388Z" fill="#FFB8B8"/>
<path d="M24.1656 216.964L17.1841 216.276L16.7511 220.678L28.1283 221.801C28.1852 221.222 28.1278 220.639 27.9594 220.083C27.791 219.527 27.515 219.01 27.147 218.561C26.779 218.111 26.3263 217.739 25.8148 217.465C25.3032 217.192 24.7428 217.021 24.1656 216.964Z" fill="#2F2E41"/>
<path d="M30.9925 121.578C26.9678 121.578 23.7051 118.31 23.7051 114.279C23.7051 110.248 26.9678 106.981 30.9925 106.981C35.0172 106.981 38.2798 110.248 38.2798 114.279C38.2798 118.31 35.0172 121.578 30.9925 121.578Z" fill="#FFB8B8"/>
<path d="M36.4555 215.576C36.7681 215.576 37.071 215.467 37.3106 215.266C37.5503 215.065 37.7114 214.785 37.7655 214.477C39.6483 204.009 45.8026 169.783 45.9498 168.835C45.953 168.813 45.9546 168.791 45.9544 168.769V166.217C45.9546 166.124 45.9256 166.033 45.8715 165.958L45.0585 164.817C45.0199 164.762 44.9692 164.717 44.9104 164.685C44.8516 164.653 44.7862 164.634 44.7192 164.631C40.084 164.414 24.904 163.776 24.1706 164.694C23.4341 165.616 23.6943 168.41 23.754 168.961L23.7511 169.018L16.9312 212.699C16.8778 213.048 16.9636 213.403 17.1698 213.688C17.3761 213.974 17.6863 214.167 18.0334 214.225L22.293 214.928C22.6103 214.979 22.9353 214.914 23.2089 214.746C23.4825 214.577 23.6867 214.315 23.7841 214.009C25.1016 209.793 29.5191 195.609 31.0502 190.121C31.0597 190.086 31.0816 190.056 31.1117 190.037C31.1418 190.017 31.1781 190.009 31.2137 190.014C31.2494 190.019 31.282 190.037 31.3054 190.064C31.3288 190.091 31.3415 190.126 31.3411 190.162C31.2646 195.394 31.0797 208.742 31.016 213.352L31.009 213.848C31.0062 214.184 31.1294 214.509 31.3542 214.759C31.5791 215.009 31.8892 215.165 32.2234 215.196L36.3309 215.57C36.3726 215.574 36.4144 215.576 36.4555 215.576Z" fill="#2F2E41"/>
<path d="M35.6173 124.448C36.8891 125.205 37.6501 126.596 38.0867 128.012C38.8953 130.633 39.3819 133.344 39.536 136.083L39.9975 144.284L45.7106 166.027C40.759 170.223 37.9027 169.27 31.2372 165.838C24.5717 162.405 23.81 166.982 23.81 166.982L22.4771 148.481L20.5727 128.265C21.0002 127.75 21.484 127.284 22.0151 126.876C23.7754 125.505 25.8233 124.552 28.0047 124.089C30.186 123.626 32.4438 123.665 34.608 124.203L35.6173 124.448Z" fill="#9F5AE5"/>
<path d="M37.4731 149.839C37.3194 149.896 37.1706 149.966 37.0279 150.048L23.8695 143.452L23.6511 139.878L18.2233 139.503L17.9324 147.649L35.5168 153.473C35.6604 154.09 35.9881 154.649 36.4563 155.074C36.9244 155.5 37.5109 155.773 38.1377 155.857C38.7646 155.94 39.402 155.831 39.9652 155.543C40.5285 155.255 40.9909 154.803 41.2909 154.245C41.591 153.688 41.7145 153.052 41.6449 152.422C41.5754 151.793 41.3162 151.199 40.9017 150.721C40.4873 150.243 39.9373 149.902 39.3248 149.744C38.7124 149.587 38.0665 149.62 37.4731 149.839Z" fill="#FFB8B8"/>
<path d="M20.668 128.358C17.4305 129.502 16.8602 141.9 16.8602 141.9C20.669 139.802 25.2396 143.235 25.2396 143.235C25.2396 143.235 26.1918 139.993 27.3345 135.797C27.6795 134.617 27.7208 133.368 27.4544 132.167C27.188 130.967 26.6227 129.853 25.8111 128.931C25.8111 128.931 23.9055 127.212 20.668 128.358Z" fill="#9F5AE5"/>
<path d="M24.4582 116.21C25.3661 115.482 26.6049 116.804 26.6049 116.804L27.3314 110.257C27.3314 110.257 31.8712 110.802 34.7767 110.075C37.6823 109.349 38.1362 112.712 38.1362 112.712C38.286 111.354 38.3164 109.984 38.227 108.62C38.0455 106.984 35.6847 105.347 31.508 104.255C27.3314 103.164 25.1523 107.893 25.1523 107.893C22.2465 109.348 23.5503 116.937 24.4582 116.21Z" fill="#2F2E41"/>
</g>
<defs>
<clipPath id="clip0">
<rect width="221" height="222" fill="white" transform="matrix(-1 0 0 1 221 0)"/>
</clipPath>
</defs>
</svg>
