<svg width="278" height="166" viewBox="0 0 278 166" fill="none" xmlns="http://www.w3.org/2000/svg">
<g clip-path="url(#clip0)">
<path d="M212.843 164.123C209.284 161.119 207.122 156.374 207.689 151.755C208.256 147.135 211.768 142.889 216.323 141.908C220.878 140.927 226.07 143.642 227.454 148.086C228.215 139.519 229.092 130.592 233.653 123.295C237.783 116.689 244.936 111.961 252.688 111.116C260.44 110.27 268.602 113.464 273.436 119.575C278.271 125.686 279.455 134.57 276.069 141.586C273.574 146.755 268.979 150.601 264.164 153.73C248.605 163.757 229.944 167.834 211.614 165.212L212.843 164.123Z" fill="#F2F2F2"/>
<path d="M265.771 113.641C259.374 118.844 253.506 124.664 248.251 131.016C240.028 140.922 233.373 152.029 228.519 163.95C228.164 164.819 229.578 165.198 229.929 164.338C237.871 144.965 250.549 127.889 266.805 114.674C267.534 114.08 266.495 113.052 265.771 113.641Z" fill="white"/>
<path d="M89.4927 163.307C94.3812 159.181 97.3505 152.664 96.5718 146.319C95.7931 139.974 90.97 134.142 84.7138 132.794C78.4576 131.447 71.3259 135.177 69.4257 141.281C68.3799 129.513 67.1748 117.252 60.9104 107.23C55.2382 98.1557 45.4138 91.6627 34.7664 90.5011C24.1189 89.3395 12.9085 93.7267 6.26812 102.12C-0.372295 110.514 -1.99817 122.716 2.6526 132.353C6.07866 139.451 12.3907 144.734 19.0041 149.032C40.1032 162.745 66.2766 168.463 91.181 164.803" fill="#F2F2F2"/>
<path d="M16.7971 93.9698C25.5825 101.117 33.6423 109.11 40.8597 117.834C48.0783 126.55 54.4334 135.944 59.8359 145.884C62.8557 151.461 65.5684 157.198 67.962 163.069C68.45 164.264 66.5081 164.784 66.0255 163.602C61.7859 153.251 56.5407 143.339 50.3651 134.009C44.2195 124.713 37.1856 116.034 29.3621 108.095C24.9371 103.606 20.2684 99.3645 15.3771 95.3881C14.3745 94.5727 15.8028 93.1612 16.7971 93.9698L16.7971 93.9698Z" fill="white"/>
<path d="M199.553 165.637H82.9207V46.1166C82.9207 20.6877 103.634 0 129.094 0H153.379C178.84 0 199.553 20.6877 199.553 46.1166V165.637Z" fill="#F2F2F2"/>
<path d="M175.268 165.636H82.9208V46.1163C82.8953 36.3726 85.9846 26.8751 91.7387 19.0067C91.9509 18.7179 92.1624 18.4329 92.3806 18.151C95.1639 14.5051 98.4761 11.2942 102.208 8.62431C102.419 8.47112 102.63 8.32059 102.845 8.17005C105.968 6.0118 109.345 4.24748 112.902 2.91723C113.113 2.83729 113.328 2.75719 113.543 2.68036C116.759 1.53402 120.093 0.748773 123.483 0.339134C123.693 0.310459 123.909 0.28802 124.125 0.265581C127.429 -0.087225 130.761 -0.087225 134.064 0.265581C134.28 0.28802 134.495 0.310456 134.708 0.339441C138.097 0.749107 141.43 1.53425 144.646 2.68038C144.861 2.75721 145.076 2.8373 145.288 2.9174C148.8 4.23086 152.138 5.96886 155.227 8.09261C155.442 8.23987 155.657 8.39041 155.869 8.54094C157.96 10.0322 159.925 11.6936 161.743 13.5081C163.201 14.9636 164.559 16.515 165.809 18.1519C166.026 18.4329 166.238 18.7179 166.45 19.0062C172.204 26.8747 175.293 36.3724 175.268 46.1163V165.636Z" fill="#CCCCCC"/>
<path d="M167.759 112.179C170.582 112.179 172.871 109.893 172.871 107.073C172.871 104.253 170.582 101.967 167.759 101.967C164.935 101.967 162.646 104.253 162.646 107.073C162.646 109.893 164.935 112.179 167.759 112.179Z" fill="#5A8D8D"/>
<path d="M189.998 162.057H186.081L184.217 146.965L189.999 146.965L189.998 162.057Z" fill="#FFB8B8"/>
<path d="M183.282 160.939H190.837V165.69H178.525C178.525 165.066 178.648 164.448 178.888 163.872C179.127 163.295 179.477 162.772 179.919 162.331C180.36 161.889 180.885 161.539 181.462 161.301C182.039 161.062 182.658 160.939 183.282 160.939Z" fill="#2F2E41"/>
<path d="M209.49 162.057H205.573L203.709 146.965L209.491 146.965L209.49 162.057Z" fill="#FFB8B8"/>
<path d="M202.774 160.939H210.329V165.69H198.017C198.017 165.066 198.14 164.448 198.379 163.872C198.619 163.295 198.969 162.772 199.411 162.331C199.852 161.889 200.377 161.539 200.954 161.301C201.531 161.062 202.15 160.939 202.774 160.939Z" fill="#2F2E41"/>
<path d="M170.346 108.085C170.064 107.67 169.877 107.199 169.797 106.704C169.718 106.209 169.747 105.703 169.885 105.221C170.022 104.739 170.264 104.293 170.593 103.914C170.921 103.535 171.329 103.233 171.787 103.029L185.104 66.3696L191.657 69.9413L176.452 104.974C176.745 105.766 176.736 106.637 176.429 107.423C176.121 108.209 175.535 108.855 174.783 109.238C174.03 109.622 173.163 109.716 172.345 109.504C171.527 109.291 170.816 108.786 170.346 108.085Z" fill="#FFB8B8"/>
<path d="M207.489 114.973C207.054 114.724 206.678 114.382 206.39 113.972C206.101 113.563 205.905 113.094 205.817 112.601C205.729 112.108 205.75 111.601 205.879 111.117C206.009 110.632 206.243 110.182 206.565 109.798L202.439 71.0186L209.897 71.3588L211.611 109.503C212.222 110.087 212.597 110.873 212.665 111.715C212.734 112.556 212.491 113.393 211.983 114.067C211.475 114.741 210.737 115.206 209.908 115.373C209.08 115.54 208.219 115.398 207.489 114.973Z" fill="#FFB8B8"/>
<path d="M195.592 59.5794C199.927 59.5794 203.441 56.07 203.441 51.7409C203.441 47.4118 199.927 43.9023 195.592 43.9023C191.258 43.9023 187.744 47.4118 187.744 51.7409C187.744 56.07 191.258 59.5794 195.592 59.5794Z" fill="#FFB8B8"/>
<path d="M207.439 106.154H183.778L183.807 105.97C183.849 105.695 188.023 78.3835 184.945 69.4484C184.636 68.5703 184.663 67.6092 185.021 66.7499C185.379 65.8906 186.043 65.194 186.884 64.7941H186.884C191.285 62.7244 199.732 60.1757 206.862 66.3609C207.911 67.286 208.73 68.4423 209.255 69.7382C209.779 71.0341 209.995 72.4342 209.884 73.8276L207.439 106.154Z" fill="#347474"/>
<path d="M188.323 82.4195L177.67 80.261L182.663 68.4431C182.962 67.2985 183.703 66.319 184.724 65.7194C185.745 65.1198 186.963 64.9492 188.109 65.2448C189.256 65.5405 190.239 66.2784 190.841 67.2966C191.444 68.3149 191.618 69.5303 191.325 70.6764L188.323 82.4195Z" fill="#5A8D8D"/>
<path d="M201.965 86.4271L201.325 71.7651C200.839 69.0088 202.419 66.4033 204.849 65.9774C207.279 65.5531 209.652 67.4647 210.14 70.2412L212.547 83.9414L201.965 86.4271Z" fill="#5A8D8D"/>
<path d="M206.652 104.398C210.459 118.88 210.874 137.293 209.847 157.377L204.735 156.738L195.468 118.441L190.355 157.377L184.604 157.057C182.885 135.984 181.212 117.893 183.964 105.994L206.652 104.398Z" fill="#2F2E41"/>
<path d="M200.764 57.7985C199.3 59.3561 196.581 58.5199 196.39 56.3919C196.375 56.2267 196.376 56.0604 196.393 55.8954C196.491 54.9528 197.037 54.097 196.906 53.1018C196.877 52.8541 196.784 52.618 196.638 52.416C195.471 50.8555 192.732 53.1139 191.631 51.7013C190.956 50.8351 191.75 49.4714 191.231 48.5033C190.548 47.2256 188.522 47.8559 187.252 47.1561C185.839 46.3776 185.923 44.2119 186.854 42.8947C187.988 41.2882 189.977 40.431 191.942 40.3075C193.906 40.1839 195.857 40.7143 197.691 41.4281C199.775 42.2392 201.841 43.3601 203.123 45.1901C204.683 47.4155 204.833 50.4075 204.053 53.0097C203.578 54.5927 201.959 56.5264 200.764 57.7985Z" fill="#2F2E41"/>
<path d="M268.408 165.842H32.4934C32.3927 165.842 32.2962 165.802 32.2251 165.73C32.154 165.659 32.114 165.563 32.114 165.462C32.114 165.361 32.154 165.265 32.2251 165.194C32.2962 165.122 32.3927 165.082 32.4934 165.082H268.408C268.509 165.082 268.605 165.122 268.676 165.194C268.747 165.265 268.787 165.361 268.787 165.462C268.787 165.563 268.747 165.659 268.676 165.73C268.605 165.802 268.509 165.842 268.408 165.842Z" fill="#3F3D56"/>
<path d="M149.864 131.009H108.324C107.777 131.012 107.251 130.798 106.862 130.414C106.472 130.031 106.251 129.508 106.247 128.962V36.3556C106.251 35.8092 106.472 35.2867 106.862 34.9029C107.251 34.5191 107.777 34.3052 108.324 34.3081H149.864C150.411 34.3052 150.937 34.5191 151.327 34.9029C151.716 35.2867 151.937 35.8092 151.941 36.3556V128.962C151.937 129.508 151.716 130.031 151.327 130.414C150.937 130.798 150.411 131.012 149.864 131.009Z" fill="white"/>
<path d="M151.941 64.2725H106.247V64.9108H151.941V64.2725Z" fill="#CCCCCC"/>
<path d="M152.101 100.69H106.407V101.329H152.101V100.69Z" fill="#CCCCCC"/>
<path d="M121.266 34.3081H120.626V131.328H121.266V34.3081Z" fill="#CCCCCC"/>
<path d="M137.243 34.3081H136.604V131.328H137.243V34.3081Z" fill="#CCCCCC"/>
</g>
<defs>
<clipPath id="clip0">
<rect width="278" height="166" fill="white"/>
</clipPath>
</defs>
</svg>
