<svg width="268" height="187" viewBox="0 0 268 187" fill="none" xmlns="http://www.w3.org/2000/svg">
<g clip-path="url(#clip0)">
<path d="M53.3972 187C82.8877 187 106.794 185.179 106.794 182.933C106.794 180.687 82.8877 178.866 53.3972 178.866C23.9067 178.866 0 180.687 0 182.933C0 185.179 23.9067 187 53.3972 187Z" fill="#FCFCFC"/>
<path d="M40.8159 41.492C50.1086 37.528 61.6829 40.0395 72.9864 41.7826C73.0915 39.6718 74.3665 37.1027 73.031 35.63C71.4084 33.8409 71.5578 31.961 72.5342 30.0703C75.0309 25.2354 71.4537 20.0908 67.8419 15.8131C67.0278 14.8512 65.9989 14.0953 64.8388 13.607C63.6788 13.1187 62.4202 12.9117 61.1654 13.0028L54.4747 13.4821C52.8466 13.5987 51.2928 14.2112 50.0213 15.2376C48.7498 16.2641 47.8212 17.6555 47.3597 19.2257C45.7621 21.4047 44.907 23.5778 45.4454 25.7395C43.0524 27.3795 42.6504 29.3592 43.7257 31.591C44.6375 32.9961 44.6278 34.364 43.6842 35.6939C42.445 37.3895 41.4959 39.2802 40.8757 41.2884L40.8159 41.492Z" fill="#2F2E41"/>
<path d="M261.649 161.658H72.2522C70.5679 161.658 68.9526 160.987 67.7617 159.793C66.5707 158.599 65.9016 156.979 65.9016 155.29C134.558 147.287 201.924 147.287 268 155.29C268 156.979 267.331 158.599 266.14 159.793C264.949 160.987 263.334 161.658 261.649 161.658Z" fill="#2F2E41"/>
<path d="M268 155.664L65.9016 155.29L89.3241 115.765L89.4362 115.577V28.4691C89.4361 27.4118 89.6437 26.3648 90.0471 25.388C90.4505 24.4111 91.0418 23.5236 91.7873 22.7759C92.5328 22.0283 93.4178 21.4353 94.3918 21.0307C95.3658 20.6261 96.4098 20.4179 97.4641 20.418H235.317C236.371 20.4179 237.415 20.6261 238.389 21.0307C239.363 21.4353 240.248 22.0283 240.994 22.7759C241.739 23.5236 242.33 24.4111 242.734 25.388C243.137 26.3648 243.345 27.4118 243.345 28.4691V116.177L268 155.664Z" fill="#3F3D56"/>
<path d="M97.2811 26.0376C96.5878 26.0384 95.9231 26.3149 95.4329 26.8066C94.9427 27.2982 94.6669 27.9648 94.6661 28.6601V108.084C94.6669 108.78 94.9427 109.446 95.4329 109.938C95.9231 110.43 96.5878 110.706 97.2811 110.707H236.621C237.314 110.706 237.979 110.43 238.469 109.938C238.959 109.446 239.235 108.78 239.236 108.084V28.6601C239.235 27.9648 238.959 27.2982 238.469 26.8066C237.979 26.315 237.314 26.0384 236.621 26.0376H97.2811Z" fill="#FCFCFC"/>
<path d="M97.8649 121.197C97.6506 121.197 97.4409 121.259 97.2606 121.375C97.0802 121.491 96.9366 121.656 96.8467 121.851L89.6295 137.586C89.5509 137.758 89.5165 137.946 89.5295 138.134C89.5425 138.322 89.6025 138.504 89.7039 138.662C89.8053 138.821 89.9448 138.952 90.1097 139.042C90.2746 139.133 90.4595 139.18 90.6475 139.18H242.421C242.612 139.18 242.8 139.131 242.967 139.038C243.134 138.944 243.274 138.81 243.375 138.647C243.475 138.484 243.532 138.298 243.541 138.106C243.549 137.915 243.509 137.725 243.423 137.553L235.579 121.818C235.486 121.631 235.343 121.474 235.166 121.364C234.989 121.254 234.785 121.196 234.576 121.197H97.8649Z" fill="#2F2E41"/>
<path d="M166.39 24.7265C167.319 24.7265 168.071 23.9717 168.071 23.0406C168.071 22.1095 167.319 21.3547 166.39 21.3547C165.462 21.3547 164.709 22.1095 164.709 23.0406C164.709 23.9717 165.462 24.7265 166.39 24.7265Z" fill="white"/>
<path d="M151.472 142.177C151.226 142.177 150.986 142.259 150.791 142.409C150.595 142.559 150.455 142.77 150.39 143.009L148.58 149.752C148.535 149.919 148.529 150.093 148.563 150.263C148.596 150.432 148.668 150.591 148.772 150.728C148.877 150.865 149.012 150.976 149.166 151.052C149.32 151.129 149.49 151.168 149.662 151.168H184.091C184.27 151.168 184.446 151.126 184.604 151.043C184.763 150.961 184.9 150.842 185.004 150.696C185.107 150.55 185.175 150.382 185.2 150.204C185.225 150.027 185.208 149.846 185.15 149.677L182.822 142.933C182.746 142.712 182.603 142.521 182.413 142.385C182.223 142.25 181.996 142.177 181.763 142.177H151.472Z" fill="#2F2E41"/>
<path d="M243.345 114.266V115.765H89.3241L89.44 115.578V114.266H243.345Z" fill="#2F2E41"/>
<path d="M239.049 52.45C253.491 52.45 265.198 40.7087 265.198 26.225C265.198 11.7413 253.491 0 239.049 0C224.607 0 212.899 11.7413 212.899 26.225C212.899 40.7087 224.607 52.45 239.049 52.45Z" fill="#9F5AE5"/>
<path d="M249.882 37.6517H228.215C227.819 37.6513 227.439 37.4933 227.159 37.2124C226.879 36.9314 226.722 36.5505 226.721 36.1531V23.0406C226.722 22.6433 226.879 22.2624 227.159 21.9814C227.439 21.7005 227.819 21.5425 228.215 21.5421H249.882C250.278 21.5425 250.658 21.7005 250.938 21.9814C251.218 22.2624 251.376 22.6433 251.376 23.0406V36.1531C251.376 36.5505 251.218 36.9314 250.938 37.2124C250.658 37.4933 250.278 37.6513 249.882 37.6517ZM228.215 23.0406V36.1531H249.883L249.882 23.0406L228.215 23.0406Z" fill="white"/>
<path d="M245.773 23.0407H232.325V17.0464C232.325 12.7047 235.153 9.5535 239.049 9.5535C242.945 9.5535 245.773 12.7047 245.773 17.0464L245.773 23.0407ZM233.819 21.5421H244.279V17.0464C244.279 13.5171 242.128 11.0521 239.049 11.0521C235.969 11.0521 233.819 13.5171 233.819 17.0464L233.819 21.5421Z" fill="white"/>
<path d="M239.049 30.7206C239.874 30.7206 240.543 30.0497 240.543 29.2221C240.543 28.3944 239.874 27.7235 239.049 27.7235C238.224 27.7235 237.555 28.3944 237.555 29.2221C237.555 30.0497 238.224 30.7206 239.049 30.7206Z" fill="white"/>
<path d="M220.794 83.7671H113.108C112.579 83.7664 112.072 83.5555 111.698 83.1806C111.324 82.8057 111.114 82.2973 111.113 81.7671V54.9775C111.114 54.4473 111.324 53.939 111.698 53.564C112.072 53.1891 112.579 52.9782 113.108 52.9776H220.794C221.323 52.9782 221.83 53.1891 222.204 53.564C222.577 53.939 222.788 54.4473 222.788 54.9775V81.7671C222.788 82.2973 222.577 82.8057 222.204 83.1806C221.83 83.5555 221.323 83.7664 220.794 83.7671ZM113.108 53.7776C112.79 53.7779 112.486 53.9044 112.262 54.1294C112.038 54.3544 111.911 54.6594 111.911 54.9775V81.7671C111.911 82.0853 112.038 82.3903 112.262 82.6152C112.486 82.8402 112.79 82.9667 113.108 82.9671H220.794C221.111 82.9667 221.416 82.8402 221.64 82.6152C221.864 82.3903 221.99 82.0853 221.991 81.7671V54.9775C221.99 54.6594 221.864 54.3544 221.64 54.1294C221.416 53.9044 221.111 53.7779 220.794 53.7775L113.108 53.7776Z" fill="#E6E6E6"/>
<path d="M129.84 75.4911C134.326 75.4911 137.963 71.8436 137.963 67.3443C137.963 62.845 134.326 59.1976 129.84 59.1976C125.353 59.1976 121.717 62.845 121.717 67.3443C121.717 71.8436 125.353 75.4911 129.84 75.4911Z" fill="#E6E6E6"/>
<path d="M148.601 61.9131C148.423 61.9129 148.246 61.9478 148.082 62.0159C147.917 62.084 147.768 62.184 147.642 62.3101C147.516 62.4362 147.416 62.586 147.348 62.7508C147.28 62.9157 147.245 63.0924 147.245 63.2709C147.245 63.4494 147.28 63.6262 147.348 63.791C147.416 63.9559 147.516 64.1057 147.642 64.2318C147.768 64.3579 147.917 64.4579 148.082 64.526C148.246 64.5941 148.423 64.629 148.601 64.6287H212.427C212.786 64.6287 213.13 64.4857 213.384 64.231C213.638 63.9764 213.78 63.631 213.78 63.2709C213.78 62.9108 213.638 62.5655 213.384 62.3108C213.13 62.0562 212.786 61.9131 212.427 61.9131H148.601Z" fill="#E6E6E6"/>
<path d="M148.601 70.0601C148.242 70.0601 147.897 70.2031 147.643 70.4578C147.389 70.7124 147.247 71.0578 147.247 71.4179C147.247 71.778 147.389 72.1234 147.643 72.378C147.897 72.6326 148.242 72.7757 148.601 72.7757H176.065C176.424 72.7757 176.769 72.6326 177.022 72.378C177.276 72.1234 177.419 71.778 177.419 71.4179C177.419 71.0578 177.276 70.7124 177.022 70.4578C176.769 70.2031 176.424 70.0601 176.065 70.0601H148.601Z" fill="#E6E6E6"/>
<path d="M89.0591 70.6093L69.1524 81.2232L68.9004 72.3783C75.3978 71.2905 81.5794 69.3966 87.2952 66.3132L89.3772 61.1546C89.6041 60.5925 89.9728 60.0993 90.4471 59.7232C90.9215 59.3472 91.4853 59.1013 92.083 59.0098C92.6807 58.9183 93.2919 58.9842 93.8566 59.2011C94.4212 59.418 94.92 59.7784 95.3038 60.247C95.8653 60.9326 96.146 61.8066 96.089 62.692C96.032 63.5774 95.6415 64.408 94.9967 65.0154L89.0591 70.6093Z" fill="#FFB8B8"/>
<path d="M40.419 131.89C40.2738 131.356 40.243 130.797 40.3285 130.25C40.4141 129.703 40.6142 129.18 40.9156 128.716L45.2885 121.986C46.3228 120.394 47.9099 119.244 49.7417 118.759C51.5736 118.275 53.5197 118.49 55.2025 119.363C53.3647 122.5 53.6209 125.252 55.8372 127.644C52.3966 129.329 49.2167 131.503 46.396 134.099C45.881 134.451 45.2897 134.675 44.6711 134.751C44.0526 134.828 43.4248 134.755 42.84 134.539C42.2552 134.323 41.7304 133.969 41.3093 133.509C40.8882 133.048 40.583 132.493 40.419 131.89Z" fill="#2F2E41"/>
<path d="M89.9658 123.09C89.3041 124.196 88.37 125.113 87.2532 125.752C86.1364 126.392 84.8744 126.733 83.5883 126.743L54.5374 126.964L53.2775 119.635L66.1286 115.844L55.2933 107.505L67.1365 93.6059L88.6475 113.713C89.9048 114.888 90.7217 116.46 90.9616 118.167C91.2016 119.874 90.85 121.612 89.9658 123.09Z" fill="#2F2E41"/>
<path d="M50.0017 173.21H43.1981C37.0895 131.217 30.8715 89.1066 49.2457 73.3892L70.9163 76.9271L68.1445 95.375L56.0493 109.274L50.0017 173.21Z" fill="#2F2E41"/>
<path d="M55.9823 182.723C55.4497 182.868 54.8924 182.899 54.347 182.814C53.8016 182.728 53.2805 182.527 52.818 182.225L45.4307 181.229C43.8433 180.192 42.6967 178.6 42.2133 176.763C41.7299 174.926 41.9442 172.974 42.8146 171.287C45.943 173.13 48.6873 172.873 51.0721 170.65C52.7571 174.062 55.5334 173.854 58.1849 176.728C58.536 177.245 58.7589 177.838 58.8352 178.458C58.9115 179.079 58.8388 179.708 58.6233 180.295C58.4078 180.881 58.0557 181.407 57.5963 181.83C57.1369 182.252 56.5836 182.558 55.9823 182.723Z" fill="#2F2E41"/>
<path d="M66.1286 45.3382L53.5294 42.3056C55.6219 38.01 55.7943 33.2303 54.7893 28.1538L63.3568 27.9011C63.6252 34.2139 64.4374 40.1116 66.1286 45.3382Z" fill="#FFB8B8"/>
<path d="M69.5913 84.5362C60.4196 90.8041 53.9391 84.7506 48.9937 75.4109C49.6809 69.6959 48.5682 62.8566 46.5075 55.4253C45.591 52.1475 45.9332 48.6443 47.4664 45.6072C48.9997 42.5701 51.6126 40.2199 54.7893 39.0205L65.6246 43.5693C74.8251 51.0904 76.636 59.2372 73.1842 67.8296L69.5913 84.5362Z" fill="#9F5AE5"/>
<path d="M43.198 51.6561L33.1187 56.963L51.0095 67.5769L53.4989 73.7351C53.6651 74.1462 53.746 74.5868 53.7368 75.0302C53.7276 75.4737 53.6284 75.9106 53.4454 76.3143C53.2623 76.718 52.9992 77.0802 52.672 77.3786C52.3448 77.677 51.9605 77.9054 51.5424 78.05C51.0671 78.2144 50.5604 78.2662 50.0619 78.2013C49.5633 78.1365 49.0865 77.9568 48.6688 77.6763C48.251 77.3958 47.9037 77.0221 47.654 76.5845C47.4043 76.147 47.259 75.6574 47.2295 75.1541L46.9778 70.8621L24.2387 63.3366C23.4726 63.083 22.774 62.6579 22.196 62.0935C21.6179 61.5291 21.1755 60.8402 20.9022 60.0789C20.5039 58.9693 20.4836 57.7585 20.8445 56.636C21.2055 55.5136 21.9273 54.5428 22.897 53.8756L41.1822 41.2949L43.198 51.6561Z" fill="#FFB8B8"/>
<path d="M53.2774 52.6669C49.0737 50.8193 45.2511 52.8263 40.4262 54.4358L39.6703 41.0422C44.4612 38.4813 49.029 37.7908 53.2774 39.7786L53.2774 52.6669Z" fill="#9F5AE5"/>
<path d="M58.3061 34.5354C62.7487 34.5354 66.3502 30.9235 66.3502 26.468C66.3502 22.0126 62.7487 18.4007 58.3061 18.4007C53.8634 18.4007 50.262 22.0126 50.262 26.468C50.262 30.9235 53.8634 34.5354 58.3061 34.5354Z" fill="#FFB8B8"/>
<path d="M67.9294 25.4503C59.9651 26.2326 53.8963 24.9263 50.0177 21.2068V18.2114H67.2535L67.9294 25.4503Z" fill="#2F2E41"/>
</g>
<defs>
<clipPath id="clip0">
<rect width="268" height="187" fill="white"/>
</clipPath>
</defs>
</svg>
