<?xml version="1.0" ?><svg id="Multicolor" viewBox="0 0 100 112" xmlns="http://www.w3.org/2000/svg"><defs><style>.cls-1{fill:#fff0ed;}.cls-2{fill:#ff6242;}.cls-3{fill:#ff8a14;}.cls-4{fill:#ffe500;}.cls-5{fill:#6dd627;}.cls-6{fill:#00b8f0;}.cls-7{fill:#9f5ae5;}.cls-8{fill:none;stroke:#45413c;stroke-linecap:round;stroke-linejoin:round;}</style></defs><title/><g id="Scene"><g data-name="New Symbol 1" id="New_Symbol_1-26"><circle class="cls-1" cx="49.996" cy="56.004" r="40"/></g><path class="cls-2" d="M52.742,41.048a4.117,4.117,0,0,0-3.34,1.706h6.68A4.116,4.116,0,0,0,52.742,41.048Z"/><path class="cls-3" d="M48.62,45.171v2.061a4.123,4.123,0,0,0-8.246,0v2.061a4.123,4.123,0,0,0-8.245,0v2.461H56.7l.166-6.583a4.106,4.106,0,0,0-.783-2.417H49.4A4.1,4.1,0,0,0,48.62,45.171Z"/><path class="cls-4" d="M32.129,55.032a31.32,31.32,0,0,0,.482,5.722H65.773l.272-5.722-9.362-2.663.016-.615H32.129Z"/><path class="cls-5" d="M35.651,69.754h29.7l.427-9H32.611C33.367,64.838,34.829,67.133,35.651,69.754Z"/><path class="cls-6" d="M36.252,73.583v5.171H60.761a6.263,6.263,0,0,1,1.647-1.9l2.7-2.141.236-4.957H35.651A12.38,12.38,0,0,1,36.252,73.583Z"/><path class="cls-7" d="M36.252,85.063a2,2,0,0,0,2.015,2l19.7-.143a2,2,0,0,0,1.986-2V81.829a6.285,6.285,0,0,1,.8-3.075H36.252Z"/><path class="cls-8" d="M56.865,45.171a4.123,4.123,0,1,0-8.245,0v2.061a4.123,4.123,0,0,0-8.246,0v2.061a4.123,4.123,0,0,0-8.245,0v5.739c0,10.619,4.123,12.481,4.123,18.552V85.062a2,2,0,0,0,2.014,2l19.7-.142a2,2,0,0,0,1.986-2V81.829a6.277,6.277,0,0,1,2.45-4.977l2.7-2.141.935-19.679-9.362-2.663Z"/><line class="cls-8" x1="48.62" x2="48.62" y1="47.232" y2="49.293"/><polygon class="cls-3" points="48.455 42.754 48.433 42.754 48.455 43.125 48.455 42.754"/><path class="cls-3" d="M56.642,51.754h.751a4.2,4.2,0,0,1-.457-.892A4.222,4.222,0,0,1,56.642,51.754Z"/><path class="cls-3" d="M39.515,42.754a4.343,4.343,0,0,1,.095.588l.746,8.412h.006l-.557-9Z"/><path class="cls-2" d="M35.139,39.6a4.125,4.125,0,0,0-3.648,3.154h8.024A4.124,4.124,0,0,0,35.139,39.6Z"/><path class="cls-3" d="M39.515,42.754H31.491a4.116,4.116,0,0,0-.094,1.317l.682,7.683h8.277l-.746-8.412A4.343,4.343,0,0,0,39.515,42.754Z"/><path class="cls-4" d="M32.157,52.64a4.123,4.123,0,1,0,8.213-.729l-.014-.157H32.079Z"/><path class="cls-2" d="M48.228,39.46a4.306,4.306,0,0,0-8.595.532l.172,2.762h8.628Z"/><path class="cls-3" d="M48.455,49.972V43.125l-.022-.371H39.805l.557,9h8.481A4.263,4.263,0,0,1,48.455,49.972Z"/><path class="cls-4" d="M40.362,51.754l.037.594a4.306,4.306,0,0,0,8.6-.28c-.057-.1-.11-.207-.159-.314Z"/><path class="cls-2" d="M57.029,39.326V38.72a4.287,4.287,0,0,0-8.574,0v4.034h8.454Z"/><path class="cls-3" d="M56.681,49.263l.228-6.509H48.455v.371l.536,8.629h7.651a4.222,4.222,0,0,0,.294-.892A4.186,4.186,0,0,1,56.681,49.263Z"/><path class="cls-4" d="M48.994,51.815c.005.085.008.169.008.253a4.288,4.288,0,0,0,7.64-.314H48.991Z"/><path class="cls-3" d="M48.843,51.754h.148l-.536-8.629v6.847A4.263,4.263,0,0,0,48.843,51.754Z"/><path class="cls-4" d="M48.994,51.815l0-.061h-.148c.049.107.1.212.159.314C49,51.984,49,51.9,48.994,51.815Z"/><path class="cls-2" d="M61.41,34.2a4.2,4.2,0,0,0-4.344,4.049l-.037,1.077v3.428H65.31l.148-4.211A4.2,4.2,0,0,0,61.41,34.2Z"/><path class="cls-3" d="M57.029,49.972a4.279,4.279,0,0,1-.093.89,4.2,4.2,0,0,0,.457.892h6.966a4.18,4.18,0,0,0,.713-2.2l.238-6.8H57.029Z"/><path class="cls-4" d="M60.729,53.606a4.2,4.2,0,0,0,3.63-1.852H57.393A4.192,4.192,0,0,0,60.729,53.606Z"/><polygon class="cls-2" points="57.029 42.754 57.029 39.326 56.909 42.754 57.029 42.754"/><path class="cls-3" d="M56.681,49.263a4.186,4.186,0,0,0,.255,1.6,4.279,4.279,0,0,0,.093-.89V42.754h-.12Z"/><path class="cls-8" d="M36.628,56.382a4.124,4.124,0,0,1-4.471-3.742l-.76-8.569a4.123,4.123,0,1,1,8.213-.729l.76,8.569A4.123,4.123,0,0,1,36.628,56.382Z"/><path class="cls-8" d="M44.963,56.379A4.306,4.306,0,0,1,40.4,52.348l-.766-12.356a4.306,4.306,0,0,1,8.595-.532l.766,12.355A4.305,4.305,0,0,1,44.963,56.379Z"/><path class="cls-8" d="M52.742,54.259a4.286,4.286,0,0,1-4.286-4.287V38.72a4.287,4.287,0,0,1,8.573,0V49.972A4.287,4.287,0,0,1,52.742,54.259Z"/><path class="cls-8" d="M60.729,53.606a4.2,4.2,0,0,1-4.049-4.343l.387-11.014a4.2,4.2,0,1,1,8.391.294l-.386,11.014A4.2,4.2,0,0,1,60.729,53.606Z"/><path class="cls-3" d="M67.414,48.676h-8.66a4.124,4.124,0,0,0-3.989,3.078h18A6.185,6.185,0,0,0,67.414,48.676Z"/><path class="cls-4" d="M58.754,56.9h6.91a14.128,14.128,0,0,0-9.577,3.857H73.6V54.865a6.163,6.163,0,0,0-.838-3.111h-18A4.1,4.1,0,0,0,58.754,56.9Z"/><path class="cls-5" d="M51.733,69.754H70.818A13.1,13.1,0,0,0,73.6,61.833V60.754H56.087A13.479,13.479,0,0,0,51.733,69.754Z"/><path class="cls-6" d="M51.711,70.491v3.092l5.171,5.171h3.88a6.246,6.246,0,0,1,1.646-1.9l5.717-4.4a14.611,14.611,0,0,0,2.693-2.7H51.733C51.719,70,51.711,70.244,51.711,70.491Z"/><path class="cls-7" d="M59.957,81.829a6.275,6.275,0,0,1,.8-3.075h-3.88Z"/><path class="cls-8" d="M59.957,81.829a6.278,6.278,0,0,1,2.451-4.977l5.717-4.4A13.639,13.639,0,0,0,73.6,61.833V54.864a6.189,6.189,0,0,0-6.189-6.188h-8.66a4.111,4.111,0,1,0,0,8.221h6.91c-7.4,0-13.952,6.2-13.952,13.6v3.091"/><line class="cls-8" x1="65.656" x2="67.81" y1="56.897" y2="56.897"/></g></svg>