<?xml version="1.0" ?><svg id="Multicolor" viewBox="0 0 100 112" xmlns="http://www.w3.org/2000/svg"><defs><style>.cls-1{fill:#fff0ed;}.cls-2{fill:#ff6242;}.cls-3{fill:#ff8a14;}.cls-4{fill:#ffe500;}.cls-5{fill:#6dd627;}.cls-6{fill:#00b8f0;}.cls-7{fill:#9f5ae5;}.cls-8{fill:#ff866e;}.cls-9{fill:#ffaa54;}.cls-10{fill:#fff48c;}.cls-11{fill:none;stroke:#45413c;stroke-linecap:round;stroke-linejoin:round;}.cls-12{fill:#45413c;fill-opacity:0.15;}</style></defs><title/><g id="Scene"><g data-name="New Symbol 1" id="New_Symbol_1-14"><circle class="cls-1" cx="50.004" cy="55.948" r="40"/></g><path class="cls-2" d="M68.405,33.278c-7.954-5.946-14.136.9-17.326,4.67H72.526A14.979,14.979,0,0,0,68.405,33.278Z"/><path class="cls-2" d="M31.605,33.278a15,15,0,0,0-4.124,4.67H48.963C46.136,34.5,39.652,27.262,31.605,33.278Z"/><path class="cls-3" d="M50,39.213c-.254-.29-.6-.732-1.041-1.265H27.481a12.584,12.584,0,0,0-1.673,6.134c0,.376.006.747.019,1.116H74.178c.012-.369.019-.74.018-1.116a12.592,12.592,0,0,0-1.67-6.134H51.079C50.671,38.431,50.312,38.863,50,39.213Z"/><path class="cls-4" d="M27.241,52.2H72.764a20.1,20.1,0,0,0,1.414-7H25.827A20.075,20.075,0,0,0,27.241,52.2Z"/><path class="cls-5" d="M31.958,59.448H68.049a25.165,25.165,0,0,0,4.715-7.25H27.241A25.176,25.176,0,0,0,31.958,59.448Z"/><path class="cls-6" d="M39.822,66.7H60.187a63.579,63.579,0,0,0,7.862-7.25H31.958A63.614,63.614,0,0,0,39.822,66.7Z"/><path class="cls-7" d="M49.039,73.453a1.709,1.709,0,0,0,1.93,0C54.548,71,57.6,68.767,60.187,66.7H39.822C42.413,68.767,45.461,71,49.039,73.453Z"/><path class="cls-8" d="M68.4,33.278c-7.953-5.946-14.135.9-17.324,4.67H72.525A14.967,14.967,0,0,0,68.4,33.278Z"/><path class="cls-8" d="M31.605,33.278a14.976,14.976,0,0,0-4.124,4.67H48.964C46.136,34.5,39.652,27.262,31.605,33.278Z"/><path class="cls-9" d="M50.006,39.213c-.255-.29-.6-.732-1.042-1.265H27.481a12.573,12.573,0,0,0-1.673,6.134c0,.376.007.747.022,1.116h1.716a14.873,14.873,0,0,1,4.059-4.579c6.579-4.919,12.114-.978,15.459,2.508a4.074,4.074,0,0,0,5.893.052c3.462-3.619,8.845-7.5,15.447-2.56A14.88,14.88,0,0,1,72.461,45.2h1.714c.015-.369.022-.74.021-1.116a12.582,12.582,0,0,0-1.671-6.134H51.08C50.672,38.431,50.313,38.863,50.006,39.213Z"/><path class="cls-10" d="M73.811,48.529a23.458,23.458,0,0,0,.364-3.331H72.461A13.424,13.424,0,0,1,73.811,48.529Z"/><path class="cls-10" d="M26.192,48.531A13.471,13.471,0,0,1,27.546,45.2H25.83A23.648,23.648,0,0,0,26.192,48.531Z"/><path class="cls-11" d="M49.039,73.453a1.709,1.709,0,0,0,1.93,0C70.468,60.091,74.205,53.231,74.2,44.082h0a13.887,13.887,0,0,0-5.791-10.8h0c-8.971-6.707-15.689,2.856-18.4,5.935-1.9-2.16-9.108-12.88-18.4-5.935h0a13.886,13.886,0,0,0-5.8,10.8h0C25.8,53.231,29.542,60.091,49.039,73.453Z"/><ellipse class="cls-12" cx="50.002" cy="82.873" rx="15.525" ry="1.725"/></g></svg>