<svg width="278" height="166" viewBox="0 0 278 166" fill="none" xmlns="http://www.w3.org/2000/svg">
<g clip-path="url(#clip0)">
<path d="M212.843 164.123C209.284 161.119 207.122 156.374 207.689 151.755C208.256 147.135 211.768 142.889 216.323 141.908C220.878 140.927 226.07 143.642 227.454 148.086C228.215 139.519 229.092 130.592 233.653 123.295C237.783 116.689 244.936 111.961 252.688 111.116C260.44 110.27 268.602 113.464 273.436 119.575C278.271 125.686 279.455 134.57 276.069 141.586C273.574 146.755 268.979 150.601 264.164 153.73C248.605 163.757 229.944 167.834 211.614 165.212L212.843 164.123Z" fill="#F2F2F2"/>
<path d="M265.771 113.641C259.374 118.845 253.506 124.664 248.251 131.016C240.028 140.923 233.373 152.029 228.519 163.95C228.164 164.82 229.578 165.198 229.929 164.338C237.871 144.965 250.549 127.889 266.804 114.674C267.534 114.08 266.494 113.052 265.771 113.641Z" fill="white"/>
<path d="M89.4927 163.306C94.3812 159.181 97.3505 152.664 96.5718 146.319C95.7931 139.974 90.97 134.142 84.7138 132.794C78.4576 131.447 71.3259 135.177 69.4257 141.28C68.3799 129.512 67.1748 117.251 60.9104 107.23C55.2382 98.1555 45.4138 91.6625 34.7664 90.5009C24.1189 89.3393 12.9085 93.7265 6.26812 102.12C-0.372295 110.514 -1.99817 122.716 2.6526 132.352C6.07866 139.451 12.3907 144.734 19.0041 149.032C40.1032 162.745 66.2766 168.463 91.181 164.803" fill="#F2F2F2"/>
<path d="M16.7971 93.9698C25.5825 101.117 33.6423 109.11 40.8597 117.834C48.0783 126.55 54.4334 135.944 59.8359 145.884C62.8557 151.461 65.5684 157.197 67.962 163.069C68.45 164.264 66.5081 164.784 66.0255 163.602C61.7859 153.251 56.5407 143.339 50.3651 134.009C44.2195 124.713 37.1856 116.034 29.3621 108.095C24.9371 103.606 20.2684 99.3645 15.3771 95.3881C14.3745 94.5727 15.8028 93.1611 16.7971 93.9698L16.7971 93.9698Z" fill="white"/>
<path d="M199.553 165.637H82.9207V46.1166C82.9207 20.6877 103.634 0 129.094 0H153.379C178.84 0 199.553 20.6877 199.553 46.1166V165.637Z" fill="#F2F2F2"/>
<path d="M175.268 165.637H82.9207V46.1165C82.8952 36.3728 85.9844 26.8753 91.7386 19.0069C91.9507 18.7181 92.1623 18.4331 92.3805 18.1512C95.1638 14.5053 98.4759 11.2944 102.208 8.62452C102.418 8.47133 102.63 8.3208 102.845 8.17027C105.968 6.01202 109.345 4.24769 112.902 2.91745C113.113 2.8375 113.328 2.7574 113.543 2.68058C116.759 1.53423 120.093 0.748987 123.483 0.339348C123.693 0.310673 123.909 0.288234 124.125 0.265795C127.429 -0.0870113 130.761 -0.0870113 134.064 0.265795C134.279 0.288234 134.495 0.31067 134.708 0.339655C138.097 0.74932 141.43 1.53447 144.646 2.68059C144.861 2.75742 145.076 2.83751 145.288 2.91761C148.8 4.23108 152.138 5.96908 155.227 8.09282C155.442 8.24009 155.657 8.39062 155.868 8.54115C157.96 10.0324 159.925 11.6938 161.743 13.5083C163.2 14.9638 164.559 16.5152 165.809 18.1522C166.026 18.4331 166.238 18.7181 166.449 19.0064C172.204 26.8749 175.293 36.3726 175.268 46.1165V165.637Z" fill="#CCCCCC"/>
<path d="M167.759 112.18C170.582 112.18 172.871 109.893 172.871 107.073C172.871 104.253 170.582 101.967 167.759 101.967C164.935 101.967 162.646 104.253 162.646 107.073C162.646 109.893 164.935 112.18 167.759 112.18Z" fill="#9F5AE5"/>
<path d="M189.998 162.057H186.081L184.217 146.965L189.999 146.965L189.998 162.057Z" fill="#FFB8B8"/>
<path d="M183.282 160.939H190.837V165.69H178.525C178.525 165.066 178.648 164.448 178.888 163.872C179.127 163.295 179.477 162.771 179.919 162.33C180.36 161.889 180.885 161.539 181.462 161.3C182.039 161.062 182.658 160.939 183.282 160.939Z" fill="#2F2E41"/>
<path d="M209.49 162.057H205.573L203.709 146.965L209.491 146.965L209.49 162.057Z" fill="#FFB8B8"/>
<path d="M202.774 160.939H210.329V165.69H198.017C198.017 165.066 198.14 164.448 198.379 163.872C198.619 163.295 198.969 162.771 199.411 162.33C199.852 161.889 200.377 161.539 200.954 161.3C201.531 161.062 202.15 160.939 202.774 160.939Z" fill="#2F2E41"/>
<path d="M170.346 108.085C170.064 107.67 169.877 107.199 169.797 106.704C169.718 106.209 169.747 105.703 169.885 105.221C170.022 104.739 170.264 104.293 170.593 103.914C170.921 103.535 171.329 103.233 171.787 103.029L185.104 66.3696L191.657 69.9412L176.452 104.974C176.745 105.766 176.736 106.637 176.429 107.423C176.121 108.209 175.535 108.855 174.783 109.238C174.03 109.622 173.163 109.716 172.345 109.504C171.527 109.291 170.816 108.786 170.346 108.085Z" fill="#FFB8B8"/>
<path d="M207.489 114.973C207.054 114.724 206.678 114.382 206.39 113.973C206.101 113.563 205.905 113.095 205.817 112.601C205.729 112.108 205.75 111.601 205.879 111.117C206.009 110.632 206.243 110.182 206.565 109.798L202.439 71.0187L209.897 71.359L211.611 109.503C212.222 110.087 212.597 110.874 212.665 111.715C212.734 112.556 212.491 113.393 211.983 114.067C211.475 114.741 210.737 115.206 209.908 115.373C209.08 115.54 208.219 115.398 207.489 114.973Z" fill="#FFB8B8"/>
<path d="M195.592 59.5794C199.927 59.5794 203.441 56.0699 203.441 51.7408C203.441 47.4117 199.927 43.9023 195.592 43.9023C191.258 43.9023 187.744 47.4117 187.744 51.7408C187.744 56.0699 191.258 59.5794 195.592 59.5794Z" fill="#FFB8B8"/>
<path d="M207.439 106.154H183.778L183.807 105.97C183.849 105.695 188.023 78.3833 184.945 69.4482C184.636 68.5702 184.663 67.609 185.021 66.7497C185.379 65.8905 186.043 65.1938 186.884 64.794H186.884C191.285 62.7242 199.732 60.1755 206.862 66.3607C207.911 67.2858 208.73 68.4421 209.255 69.738C209.779 71.0339 209.995 72.434 209.884 73.8274L207.439 106.154Z" fill="#9F5AE5"/>
<path d="M188.322 82.4194L177.67 80.261L182.663 68.4431C182.962 67.2985 183.703 66.3189 184.724 65.7194C185.745 65.1198 186.962 64.9491 188.109 65.2448C189.256 65.5405 190.238 66.2784 190.841 67.2966C191.444 68.3148 191.618 69.5303 191.325 70.6763L188.322 82.4194Z" fill="#9F5AE5"/>
<path d="M201.965 86.4272L201.325 71.7652C200.839 69.009 202.419 66.4034 204.849 65.9775C207.279 65.5532 209.652 67.4648 210.14 70.2413L212.547 83.9415L201.965 86.4272Z" fill="#9F5AE5"/>
<path d="M206.652 104.398C210.459 118.88 210.874 137.293 209.847 157.377L204.735 156.738L195.468 118.441L190.355 157.377L184.604 157.058C182.885 135.984 181.212 117.893 183.964 105.994L206.652 104.398Z" fill="#2F2E41"/>
<path d="M200.764 57.7985C199.3 59.3562 196.581 58.52 196.39 56.392C196.375 56.2268 196.376 56.0605 196.393 55.8955C196.491 54.9529 197.037 54.0971 196.906 53.1018C196.877 52.8541 196.784 52.6181 196.638 52.416C195.471 50.8556 192.732 53.1139 191.631 51.7014C190.956 50.8352 191.75 49.4714 191.231 48.5033C190.548 47.2256 188.522 47.8559 187.252 47.1562C185.839 46.3776 185.923 44.212 186.854 42.8947C187.988 41.2883 189.977 40.4311 191.942 40.3075C193.906 40.184 195.857 40.7144 197.691 41.4282C199.775 42.2393 201.841 43.3602 203.123 45.1901C204.683 47.4156 204.833 50.4075 204.053 53.0098C203.578 54.5927 201.959 56.5265 200.764 57.7985Z" fill="#2F2E41"/>
<path d="M268.408 165.842H32.4933C32.3925 165.842 32.2961 165.801 32.2249 165.73C32.1538 165.659 32.1139 165.562 32.1139 165.462C32.1139 165.361 32.1538 165.265 32.2249 165.194C32.2961 165.122 32.3925 165.082 32.4933 165.082H268.408C268.509 165.082 268.605 165.122 268.676 165.194C268.747 165.265 268.787 165.361 268.787 165.462C268.787 165.562 268.747 165.659 268.676 165.73C268.605 165.801 268.509 165.842 268.408 165.842Z" fill="#3F3D56"/>
<path d="M149.864 131.009H108.324C107.777 131.012 107.251 130.798 106.862 130.415C106.472 130.031 106.251 129.508 106.247 128.962V36.3557C106.251 35.8093 106.472 35.2869 106.862 34.903C107.251 34.5192 107.777 34.3053 108.324 34.3083H149.864C150.412 34.3053 150.937 34.5192 151.327 34.903C151.716 35.2869 151.937 35.8093 151.941 36.3557V128.962C151.937 129.508 151.716 130.031 151.327 130.415C150.937 130.798 150.412 131.012 149.864 131.009Z" fill="white"/>
<path d="M151.941 64.2725H106.247V64.9108H151.941V64.2725Z" fill="#CCCCCC"/>
<path d="M152.101 100.691H106.407V101.329H152.101V100.691Z" fill="#CCCCCC"/>
<path d="M121.266 34.308H120.626V131.328H121.266V34.308Z" fill="#CCCCCC"/>
<path d="M137.242 34.308H136.603V131.328H137.242V34.308Z" fill="#CCCCCC"/>
</g>
<defs>
<clipPath id="clip0">
<rect width="278" height="166" fill="white"/>
</clipPath>
</defs>
</svg>
